<?xml version="1.0" encoding="utf-8"?>
<!-- Generator: Adobe Illustrator 16.0.0, SVG Export Plug-In . SVG Version: 6.00 Build 0)  -->
<!DOCTYPE svg PUBLIC "-//W3C//DTD SVG 1.1//EN" "http://www.w3.org/Graphics/SVG/1.1/DTD/svg11.dtd">
<svg version="1.1" id="Layer_1" xmlns="http://www.w3.org/2000/svg" xmlns:xlink="http://www.w3.org/1999/xlink" x="0px" y="0px"
	 width="1328.986px" height="1328.987px" viewBox="0 0 1328.986 1328.987" enable-background="new 0 0 1328.986 1328.987"
	 xml:space="preserve">
<g>
	<path d="M2939.394-431.41c-27.126-38.606-53.42-78.044-79.709-117.481l-1.642,0.804c0.838,35.323,1.642,80.515,1.642,129.019
		v335.206h-75.566v-594.852h75.566l211.171,302.364l211.14-302.364h74.795v594.852h-78.072v-335.206
		c0-48.504,0.836-93.695,1.636-129.019l-1.636-0.804c-26.294,39.438-52.583,78.875-79.679,117.481l-129.822,185.681L2939.394-431.41
		z"/>
	<rect x="2411.428" y="-679.372" width="338" height="69"/>
	<rect x="2476.428" y="-418.372" width="273" height="70"/>
	<rect x="2411.428" y="-154.372" width="338" height="70"/>
</g>
<g>
	<polygon points="4576.428,-80.372 4537.428,-80.372 4537.428,-707.53 4917.615,-360.105 5265.957,-678.604 5291.545,-650.782
		4918.19,-308.959 4576.428,-621.858 	"/>
</g>
<g>
	<polygon points="5065.074,-174.278 5037.066,-199.906 5276.143,-424.221 5301.748,-396.513 	"/>
</g>
<g>
	<polygon points="5195.456,-54.908 5167.572,-80.442 5280.285,-184.835 5305.891,-157.126 	"/>
</g>
<circle cx="2931.427" cy="1194.628" r="537.022"/>
<g>
	<g>
		<polygon fill="#FFFFFF" points="2697.428,1398.628 2670.428,1398.628 2670.428,973.033 2928.725,1208.966 3165.338,992.677
			3182.743,1011.57 2929.358,1243.698 2697.428,1031.212 		"/>
	</g>
	<g>
		<polygon fill="#FFFFFF" points="3028.977,1335.16 3009.957,1317.756 3172.312,1165.426 3189.699,1184.243 		"/>
	</g>
	<g>
		<polygon fill="#FFFFFF" points="3117.518,1416.223 3098.582,1398.883 3175.125,1327.991 3192.513,1346.808 		"/>
	</g>
</g>
<circle cx="371.416" cy="2381.616" r="537.022"/>
<g>
	<g>
		<polygon fill="#FFFFFF" points="137.428,2585.628 110.428,2585.628 110.428,2160.022 368.697,2395.954 605.297,2179.665
			622.696,2198.56 369.334,2430.687 137.428,2218.2 		"/>
	</g>
	<g>
		<polygon fill="#FFFFFF" points="468.922,2522.149 449.903,2504.745 612.257,2352.415 629.645,2371.232 		"/>
	</g>
	<g>
		<polygon fill="#FFFFFF" points="557.463,2603.212 538.528,2585.872 615.071,2514.979 632.458,2533.796 		"/>
	</g>
</g>
<g>
	<circle fill="none" stroke="#FFFFFF" stroke-width="20" stroke-miterlimit="10" cx="664.493" cy="664.493" r="641.497"/>
	<g>
		<g>
			<polygon fill="#FFFFFF" stroke="#FFFFFF" stroke-miterlimit="10" points="372.928,919.128 338.928,919.128 338.928,388.749
				660.736,682.335 955.366,413.192 977.123,436.703 661.677,725.555 372.928,461.145 			"/>
		</g>
		<g>
			<polygon fill="#FFFFFF" stroke="#FFFFFF" stroke-miterlimit="10" points="785.88,839.366 762.213,817.709 964.241,628.155
				985.877,651.571 			"/>
		</g>
		<g>
			<polygon fill="#FFFFFF" stroke="#FFFFFF" stroke-miterlimit="10" points="896.057,940.237 872.494,918.661 967.742,830.446
				989.378,853.86 			"/>
		</g>
	</g>
</g>
<g>
	<polygon points="6904.33,-362.372 7165.428,-362.372 7165.428,-480.372 6903.34,-480.372 6952.572,-421.372 	"/>
	<path d="M6789.225-213.372l-91.799,117.76c14.093,0.093,274.363,0.24,287.459,0.24h170.543v-118l0,0l0,0H6789.225z"/>
	<path d="M6612.692-635.372l-91.8-117.76c14.094-0.092,450.896-0.24,463.992-0.24h170.543v118l0,0l0,0H6612.692z"/>
</g>
<g>
	<path d="M6628.919,936.433c-0.153-0.182-0.307-0.362-0.46-0.543C6628.904,950.87,6628.98,944.992,6628.919,936.433z"/>
	<path d="M6529.428,787.628v14.98v443.136v167.884h99V935.89c0-29.221,0.387-11.628,0.476,0.543
		c34.142,40.307,68.296,80.617,103.509,120.086l169.334,190.846l47.908-53.736h3.773v-4.941l117.719-132.168
		c35.362-39.646,69.281-80.141,104.281-120.629v477.738h101v-177.527V802.608v-14.98H6529.428z M6705.945,889.628h158.482v179.276
		L6705.945,889.628z M6953.428,1056.91V889.628h148.406L6953.428,1056.91z"/>
</g>
<rect x="6350.928" y="-883.872" fill="none" stroke="#000000" stroke-miterlimit="10" width="1000" height="920"/>
<rect x="6249.928" y="475.128" fill="none" stroke="#000000" stroke-width="3" stroke-miterlimit="10" width="1305" height="1252"/>
<g>
	<g>
		<rect x="4253.428" y="433.628" width="1323" height="34"/>
		<rect x="4253.428" y="1614.628" width="1323" height="34"/>
		<rect x="5541.428" y="552.628" width="35" height="1096"/>
		<rect x="4253.428" y="433.628" width="34" height="1096"/>
	</g>
	<path fill="#9B9B9B" d="M4530.882,824.811h261.223v36.48h-221.486v171.977h196.08v36.48h-196.08v190.217h227.349v36.48h-267.085
		V824.811z"/>
	<path d="M4989.545,1090.594c-23.451-33.223-46.902-67.748-69.051-100.972l-1.303,0.651c0.65,33.875,1.303,78.172,1.303,117.258
		v188.914h-99.67V824.811h99.67l140.057,199.338l140.057-199.338h98.365v471.635h-103.576v-188.914
		c0-39.086,0.65-83.383,1.302-117.258l-1.302-0.651c-22.148,33.224-45.6,67.749-69.053,100.972l-68.398,97.063L4989.545,1090.594z"
		/>
</g>
</svg>
